# xmcd
# Track frame offsets:
# 150
# 19612
# 45974
# 59961
# 77923
# 90410
# 110097
# 124159
# 140546
# 151458
# 168370
# 186257
# 198744
# 217231
# 232568
# 246930
# 262792
# 276779
# 295041
#
# Disc length: 4133 seconds
# Revision: 4
# Processed by: cddbd v1.5.2PL0 Copyright (c) Steve Scherf et al.
# Submitted via: VisiTrax 2.11.2.271 - For more info visit www.synapsa.com
#
DISCID=12102313
DTITLE=Various Artist - Promo Only Country Radio - September 2009
DYEAR=2009
DGENRE=Country
TTITLE0=Zac Brown Band - Toes
TTITLE1=Brad Paisley - Welcome To The Future (Album Version)
TTITLE2=Tim McGraw - It's A Business Doing Pleasure With You
TTITLE3=Sugarland - Joey (Album Version)
TTITLE4=Toby Keith - American Ride
TTITLE5=Alan Jackson - I Still Like Bologna
TTITLE6=Fast Ryde - That Thang
TTITLE7=Keith Urban - Only You Can Love Me This Way
TTITLE8=Larry Gatlin and The Gatlin Brothers - Johnny Cash Is Dead (And His Hous
TTITLE8=e Burned Down)
TTITLE9=Lost Trailers - Country Folks (Livin' Loud)
TTITLE10=Dierks Bentley - I Wanna Make You Close Your Eyes
TTITLE11=Heartland - Mustache
TTITLE12=Blaine Larsen - It Did
TTITLE13=Tyler Dean - Taylor Swift
TTITLE14=Anthony Smith - Bringin' Back The Sunshine
TTITLE15=Sarah Buxton - Outside My Window (Single Version)
TTITLE16=Bill Gentry - I Want What You Want
TTITLE17=Trent Tomlinson - Henry Cartwright's Produce Stand
TTITLE18=Katie Armiger - Gone (Album Version)
EXTD=YEAR: 2009
EXTT0=
EXTT1=
EXTT2=
EXTT3=
EXTT4=
EXTT5=
EXTT6=
EXTT7=
EXTT8=
EXTT9=
EXTT10=
EXTT11=
EXTT12=
EXTT13=
EXTT14=
EXTT15=
EXTT16=
EXTT17=
EXTT18=
PLAYORDER=
